<?xml version="1.0" standalone="no"?>
<!DOCTYPE svg PUBLIC "-//W3C//DTD SVG 20010904//EN"
 "http://www.w3.org/TR/2001/REC-SVG-20010904/DTD/svg10.dtd">
<svg version="1.0" xmlns="http://www.w3.org/2000/svg"
 width="1024.000000pt" height="1024.000000pt" viewBox="0 0 1024.000000 1024.000000"
 preserveAspectRatio="xMidYMid meet">
<metadata>
Created by potrace 1.14, written by Peter Selinger 2001-2017
</metadata>
<g transform="translate(0.000000,1024.000000) scale(0.100000,-0.100000)"
fill="#000000" stroke="none">
<path d="M4738 10235 c-1 -1 -48 -6 -103 -10 -455 -30 -943 -138 -1390 -305
-483 -181 -907 -420 -1345 -758 -47 -36 -87 -69 -90 -72 -3 -3 -34 -30 -70
-60 -140 -117 -401 -378 -517 -515 -23 -28 -53 -63 -68 -80 -94 -107 -375
-501 -375 -525 0 -6 -4 -10 -9 -10 -5 0 -14 -13 -21 -30 -7 -16 -16 -30 -21
-30 -5 0 -9 -4 -9 -9 0 -6 -30 -61 -66 -123 -74 -125 -187 -355 -258 -521 -25
-59 -46 -110 -46 -112 0 -2 -5 -16 -11 -32 -6 -15 -10 -29 -10 -30 0 -2 -11
-27 -24 -58 -14 -30 -22 -55 -18 -55 4 0 2 -5 -5 -12 -7 -7 -12 -21 -12 -33 0
-12 -4 -25 -9 -30 -6 -6 -12 -21 -14 -35 -3 -14 -12 -42 -20 -63 -9 -21 -16
-38 -16 -40 1 -1 -4 -22 -11 -47 -7 -25 -14 -52 -16 -60 -2 -8 -13 -51 -25
-95 -34 -131 -67 -288 -88 -423 -27 -167 -29 -184 -46 -334 -28 -254 -28 -980
0 -1218 33 -277 58 -431 97 -600 72 -319 189 -677 303 -925 67 -147 171 -354
209 -418 25 -43 46 -80 46 -83 0 -3 19 -34 108 -174 34 -53 109 -165 124 -185
4 -5 49 -66 100 -135 197 -266 488 -578 717 -770 30 -25 59 -50 65 -56 6 -6
34 -27 61 -48 28 -21 52 -41 55 -45 3 -4 21 -18 40 -31 19 -13 37 -27 40 -30
23 -28 418 -291 490 -327 8 -4 47 -26 87 -49 283 -168 762 -363 1126 -458 152
-40 336 -83 393 -91 21 -4 77 -12 124 -20 47 -8 110 -17 140 -20 30 -3 66 -8
80 -10 14 -2 50 -6 80 -9 30 -3 91 -9 135 -13 103 -10 843 -10 955 0 98 9 160
15 210 22 19 2 55 7 80 10 25 3 63 8 85 12 46 7 55 9 115 17 67 9 140 24 300
63 80 19 153 36 163 38 24 5 56 15 222 70 77 25 147 48 155 50 30 7 268 105
385 158 130 59 332 162 395 202 22 14 42 25 44 25 3 0 25 14 49 30 25 17 48
30 52 30 3 0 21 11 39 25 18 14 36 25 39 25 13 0 424 295 447 320 3 3 17 15
32 26 146 113 457 415 613 599 33 38 66 76 73 84 27 28 242 320 299 406 182
271 365 619 485 920 32 81 153 426 156 445 0 3 3 12 6 20 4 15 55 209 61 239
14 60 55 261 59 286 4 28 11 77 22 150 2 17 6 41 9 55 2 14 7 52 10 85 4 33 8
71 10 85 28 216 28 1035 0 1213 -2 12 -6 49 -10 82 -11 97 -37 282 -50 345 -2
13 -7 42 -11 64 -3 22 -7 43 -9 47 -2 3 -6 19 -9 35 -12 65 -76 315 -102 394
-15 47 -29 92 -30 100 -2 8 -7 23 -12 35 -5 11 -15 38 -22 60 -39 124 -172
439 -256 605 -83 165 -306 541 -326 548 -4 2 -8 10 -8 18 0 8 -4 14 -8 14 -4
0 -16 15 -27 33 -18 31 -232 317 -244 327 -4 3 -37 41 -75 85 -123 143 -373
393 -510 510 -32 28 -64 55 -70 61 -6 6 -79 61 -161 123 -83 62 -157 118 -165
124 -38 29 -139 97 -143 97 -3 0 -32 18 -65 39 -56 38 -79 51 -182 109 -25 14
-62 36 -82 48 -31 20 -333 169 -393 194 -11 4 -36 15 -57 24 -20 9 -78 32
-130 51 -51 20 -102 40 -113 45 -47 20 -367 120 -392 122 -5 0 -19 4 -32 9
-28 11 -314 77 -362 84 -19 2 -61 9 -94 15 -81 14 -264 38 -350 46 -38 3 -86
8 -105 11 -39 5 -866 13 -872 8z"/>
</g>
</svg>
